<?xml version="1.0" encoding="UTF-8"?>
<svg id="Layer_2" data-name="Layer 2" xmlns="http://www.w3.org/2000/svg" xmlns:xlink="http://www.w3.org/1999/xlink" viewBox="0 0 512 512">
  <defs>
    <style>
      .cls-1 {
        fill: url(#linear-gradient-2);
      }

      .cls-2 {
        fill: url(#linear-gradient-3);
      }

      .cls-3 {
        fill: url(#linear-gradient);
      }
    </style>
    <linearGradient id="linear-gradient" x1="255.12" y1="121.25" x2="258.53" y2="641.85" gradientUnits="userSpaceOnUse">
      <stop offset="0" stop-color="#182238"/>
      <stop offset="1" stop-color="#0f172a"/>
    </linearGradient>
    <linearGradient id="linear-gradient-2" x1="357.34" y1="165.5" x2="353.94" y2="450.42" gradientUnits="userSpaceOnUse">
      <stop offset="0" stop-color="#22d3ee"/>
      <stop offset="1" stop-color="#2563eb"/>
    </linearGradient>
    <linearGradient id="linear-gradient-3" x1="257.1" y1="164.3" x2="253.69" y2="449.22" xlink:href="#linear-gradient-2"/>
  </defs>
  <g id="Layer_1" data-name="Layer 1">
    <g>
      <rect class="cls-3" width="512" height="512"/>
      <g>
        <rect class="cls-1" x="326.17" y="123.22" width="62.61" height="62.61" rx="21.19" ry="21.19"/>
        <path class="cls-2" d="M326.37,287.23l-.13-.13c-12.6-12.6-19.68-29.7-19.68-47.52v-.24c0-18.72-15.18-33.9-33.9-33.9h-.24c-17.82,0-34.91-7.08-47.52-19.68l-.13-.13c-12.6-12.6-19.68-29.69-19.68-47.52v-.25c0-18.72-15.18-33.9-33.9-33.9h-33.32c-18.72,0-33.9,15.18-33.9,33.9v33.33c0,18.72,15.18,33.9,33.9,33.9h.37c17.82,0,34.91,7.08,47.52,19.68h0c12.6,12.6,19.68,29.69,19.68,47.52v5.19c0,3.32-1.32,6.51-3.67,8.86l-33.62,33.62c-3.97,3.97-9.36,6.21-14.98,6.21h-8.75c-11.7,0-21.19,9.49-21.19,21.19v20.23c0,11.7,9.49,21.19,21.19,21.19h20.23c11.7,0,21.19-9.49,21.19-21.19v-8.71c0-5.62,2.23-11.01,6.21-14.98l30.02-30.02c4.68-4.68,11.03-7.31,17.64-7.31h0c17.82,0,34.92,7.08,47.52,19.68h0c12.6,12.6,19.68,29.7,19.68,47.52v.37c0,18.72,15.18,33.9,33.9,33.9h33.32c18.72,0,33.9-15.18,33.9-33.9v-33.32c0-18.72-15.18-33.9-33.9-33.9h-.25c-17.82,0-34.91-7.08-47.52-19.68Z"/>
      </g>
    </g>
  </g>
</svg>