<?xml version="1.0" encoding="UTF-8"?>
<svg id="Layer_1" data-name="Layer 1" xmlns="http://www.w3.org/2000/svg" viewBox="0 0 1024 1024">
  <defs>
    <style>
      .cls-1 {
        fill: #e0007b;
      }

      .cls-1, .cls-2, .cls-3, .cls-4, .cls-5, .cls-6, .cls-7 {
        stroke-width: 0px;
      }

      .cls-2 {
        fill: #fa0f01;
      }

      .cls-3 {
        fill: #1c2939;
      }

      .cls-4 {
        fill: #eddd00;
      }

      .cls-5 {
        fill: #f66701;
      }

      .cls-6 {
        fill: #91ba01;
      }

      .cls-7 {
        fill: #019dde;
      }
    </style>
  </defs>
  <rect fill="none" width="1024" height="1024"/>
  <g>
    <path class="cls-6" d="M95.2,439.91l146.01-252.81c15.35-26.67,53.83-26.63,69.23,0l64.15,111.15c2.18,3.73,6.2,6.05,10.5,6.05h7.84c7.31-22.75,36.94-32.77,57.85-11.38,17.38,26.29-1.26,54.22-26.24,54.22h-.73c-4.31,0-8.33,2.32-10.5,6.05-2.13,3.73-2.13,8.38,0,12.1l77.75,134.58h-155.45c3.49-14.62.73-30.35-6.39-47.3-.58-1.4-1.5-2.66-2.66-3.68-48.22-42.26-103.89-8.57-103.89,37.91,0,4.45.53,8.81,1.5,13.07h-94.31c-30.79,0-50.06-33.31-34.66-59.98Z"/>
    <path class="cls-4" d="M692.6,848.99c15.4,26.67-3.82,59.98-34.61,59.98h-291.92c-30.79,0-50.06-33.31-34.66-59.98l50.83-88.01c2.18-3.73,1.98-8.38-.19-12.1-3.92-6.68-14.38-8.86-20.19-1.16-41.93-29.63-20.96-70.87,9.49-70.87,11.86,0,22.85,6.44,28.76,16.75,2.13,3.78,6.1,6.15,10.46,6.15h.05c4.31,0,8.33-2.32,10.46-6.05l90.96-157.48,78.48,135.94c-34.08,9.92-55.19,50.78-30.64,89.9.53.82,1.16,1.65,1.84,2.32,27.6,27.79,63.27,24.06,84.33,3.97l46.57,80.65Z"/>
    <path class="cls-7" d="M352.65,763.84l-42.21,73.05c-15.39,26.67-53.83,26.67-69.23,0l-146.01-252.81c-15.4-26.67,3.87-59.98,34.66-59.98h112.56c4.45,0,8.57-2.47,10.7-6.39,2.08-3.97,1.84-8.76-.63-12.44-8.52-12.68-7.7-30.26,4.84-43.76,26.67-18.93,55.58-.1,55.58,25.32,0,6.58-1.94,12.97-5.62,18.44-2.47,3.68-2.71,8.47-.63,12.44,2.13,3.92,6.25,6.39,10.7,6.39h173.7l-82.3,142.52c-10.26-8.91-23.48-13.99-37.42-13.99-31.56,0-57.22,25.66-57.22,57.17,0,24.93,16.02,46.18,38.54,54.03Z"/>
    <path class="cls-2" d="M671.25,260.45l42.36-73.34c15.39-26.67,53.83-26.67,69.23,0l145.96,252.81c15.39,26.67-3.87,59.98-34.66,59.98h-115.61c-9.44,3.63-11.13,13.6-6.25,19.7,9.59,11.81,10.07,28.66-.48,43.96-27.35,22.22-58.24,3-58.24-23.29,0-7.6,2.52-14.77,7.31-20.67,4.89-6.1,3.19-16.07-6.49-19.7h-181.4l81.91-141.85c10.17,8.42,23.14,13.31,36.65,13.31,31.56,0,57.22-25.66,57.22-57.22,0-24.45-15.69-45.55-37.52-53.69Z"/>
    <path class="cls-5" d="M928.8,584.08l-145.96,252.81c-15.4,26.67-53.83,26.67-69.23,0l-55.87-96.68c-.53-.97-1.16-1.79-1.94-2.52-.39-.39-.82-.77-1.26-1.11-.87-.68-1.79-1.16-2.81-1.55-1.55-.58-3.2-.87-4.94-.87-4.5.19-8.52,2.86-10.46,6.92-9.3,19.65-36.6,27.45-56.3,6.97-17.09-26.19,1.45-53.98,26.38-53.98.82,0,1.65,0,2.42.1,4.55.53,9.01-1.55,11.52-5.37,2.52-3.82,2.66-8.71.39-12.68l-87.77-152.01h158.65c-4.89,16.85-2.08,36.26,10.07,54.9.68,1.02,1.55,1.99,2.52,2.71,47.15,36.74,99.58,3.68,99.58-41.44,0-5.57-.77-10.99-2.28-16.17h92.61c30.79,0,50.06,33.31,34.66,59.98Z"/>
    <path class="cls-1" d="M331.4,175.01c-15.4-26.67,3.87-59.98,34.61-59.98h292.02c30.74,0,50.01,33.31,34.61,59.98l-50.78,87.96c-2.18,3.73-2.18,8.28-.1,12.01,2.13,3.73,6.05,6.05,10.36,6.15,24.11.44,42.26,27.26,26.58,52.53-17.77,21.06-44.73,15.39-55.43-2.52-2.23-3.68-6.15-5.91-10.41-5.91h-.1c-4.31.05-8.23,2.32-10.36,6.05l-90.39,156.52-68.99-119.48c32.77-11.18,52.19-51.41,27.74-89.76-.48-.77-1.11-1.5-1.74-2.13-26.34-26.24-60.9-23.96-82.15-5.32l-55.48-96.1Z"/>
  </g>
</svg>